<svg xmlns="http://www.w3.org/2000/svg" width="800" height="800" viewBox="0 0 48 48"><path fill="currentColor" d="M24.001 7c6.337 0 9.932 4.195 10.455 9.26h.16c4.078 0 7.384 3.298 7.384 7.365s-3.306 7.365-7.384 7.365H31.91q.088.24.089.51a1.5 1.5 0 1 1-2.911-.51H18.554l-4.306 7.17a1.75 1.75 0 0 1-3.076-1.66l.075-.141 3.224-5.369h-1.085c-4.078 0-7.384-3.297-7.384-7.365s3.306-7.365 7.384-7.365h.16C14.072 11.161 17.664 7 24.001 7m-.416 27.27a1.75 1.75 0 0 1 .648 2.27l-.077.14-.919 1.489a1.75 1.75 0 0 1-3.056-1.698l.077-.14.919-1.49a1.75 1.75 0 0 1 2.408-.57M28.5 35a1.5 1.5 0 1 1 0 3 1.5 1.5 0 0 1 0-3m5-1a1.5 1.5 0 1 1 0 3 1.5 1.5 0 0 1 0-3"/></svg>